####
#
#	OBJ File Generated by LightWave3D
#	LightWave3D OBJ Export v2.3
#
####
o isl_Pipe_03_DEF.obj
mtllib isl_Pipe_03_DEF.mtl
g default
v 0.5 0 -0
v 0.353553 0 -0.353553
v 0 0 -0.5
v -0.353553 0 -0.353553
v -0.5 0 -0
v -0.353553 0 0.353553
v 0 0 0.5
v 0.353553 0 0.353553
v 0.5 1.75 -0
v 0.353553 1.75 -0.353553
v 0 1.75 -0.5
v -0.353553 1.75 -0.353553
v -0.5 1.75 -0
v -0.353553 1.75 0.353553
v 0 1.75 0.5
v 0.353553 1.75 0.353553
v 0.400227 2 0.400227
v -1.30621e-008 2 0.566007
v -0.400227 2 0.400227
v -0.566007 2 1.30621e-008
v -0.400227 2 -0.400227
v 1.30621e-008 2 -0.566007
v 0.400227 2 -0.400227
v 0.566007 2 -1.30621e-008
v -9.17248e-009 1.75 0.568397
v 0.401917 1.75 0.401917
v -0.401917 1.75 0.401917
v -0.568397 1.75 9.17248e-009
v -0.401917 1.75 -0.401917
v 9.17248e-009 1.75 -0.568397
v 0.401917 1.75 -0.401917
v 0.568397 1.75 -9.17248e-009
v 0.422426 1.971 0.422426
v 0.422426 1.779 0.422426
v -1.30621e-008 1.779 0.5974
v -1.30621e-008 1.971 0.5974
v -0.422426 1.779 0.422426
v -0.422426 1.971 0.422426
v -0.5974 1.779 1.30621e-008
v -0.5974 1.971 1.30621e-008
v -0.422426 1.779 -0.422426
v -0.422426 1.971 -0.422426
v 1.30621e-008 1.971 -0.5974
v 1.30621e-008 1.779 -0.5974
v 0.422426 1.971 -0.422426
v 0.422426 1.779 -0.422426
v 0.5974 1.971 -1.30621e-008
v 0.5974 1.779 -1.30621e-008
v 0.288164 0.5 0.288164
v -1.65891e-008 0.5 0.407525
v -0.288164 0.5 0.288164
v -0.407525 0.5 3.27086e-009
v -0.288164 0.5 -0.288164
v 1.65891e-008 0.5 -0.407525
v 0.288164 0.5 -0.288164
v 0.407525 0.5 -3.27086e-009
v 0.308864 2 0.308864
v -1.59376e-008 2 0.4368
v -0.308864 2 0.308864
v -0.4368 2 5.07952e-009
v -0.308864 2 -0.308864
v 1.59376e-008 2 -0.4368
v 0.308864 2 -0.308864
v 0.4368 2 -5.07952e-009
v 0.288164 1.97072 0.288164
v -1.65891e-008 1.97072 0.407525
v -0.288164 1.97072 0.288164
v -0.407525 1.97072 3.27086e-009
v -0.288164 1.97072 -0.288164
v 1.65891e-008 1.97072 -0.407525
v 0.288164 1.97072 -0.288164
v 0.407525 1.97072 -3.27086e-009
vt 0.194 0.183
vt 0.298 0.317
vt 0.32 0.466
vn 0.92388 -0 -0.382683
vn 0.92388 -0 -0.382683
vn 0.92388 -0 -0.382683
vn 0.92388 -0 -0.382683
vn 0.382683 -0 -0.92388
vn 0.382683 -0 -0.92388
vn 0.382683 -0 -0.92388
vn 0.382683 -0 -0.92388
vn -0.382683 0 -0.92388
vn -0.382683 0 -0.92388
vn -0.382683 0 -0.92388
vn -0.382683 0 -0.92388
vn -0.92388 0 -0.382683
vn -0.92388 0 -0.382683
vn -0.92388 0 -0.382683
vn -0.92388 0 -0.382683
vn -0.92388 0 0.382683
vn -0.92388 0 0.382683
vn -0.92388 0 0.382683
vn -0.92388 0 0.382683
vn -0.382683 0 0.92388
vn -0.382683 0 0.92388
vn -0.382683 0 0.92388
vn -0.382683 0 0.92388
vn 0.382683 0 0.92388
vn 0.382683 0 0.92388
vn 0.382683 0 0.92388
vn 0.382683 0 0.92388
vn 0.92388 0 0.382683
vn 0.92388 0 0.382683
vn 0.92388 0 0.382683
vn 0.92388 0 0.382683
vn -2.96602e-007 -1 -3.97764e-014
vn -2.96602e-007 -1 -3.97764e-014
vn -2.96602e-007 -1 -3.97764e-014
vn -2.96602e-007 -1 -3.97764e-014
vn 0 -1 -0
vn 0 -1 -0
vn 0 -1 -0
vn 0 -1 -0
vn 0 -1 -0
vn 0 -1 -0
vn 0 -1 -0
vn 0 -1 -0
vn -3.97764e-014 -1 -2.96602e-007
vn -3.97764e-014 -1 -2.96602e-007
vn -3.97764e-014 -1 -2.96602e-007
vn -3.97764e-014 -1 -2.96602e-007
vn -9.31669e-007 -1 -1.53319e-006
vn -9.31669e-007 -1 -1.53319e-006
vn -9.31669e-007 -1 -1.53319e-006
vn -9.31669e-007 -1 -1.53319e-006
vn -0 -1 -0
vn -0 -1 -0
vn -0 -1 -0
vn -0 -1 -0
vn -0 -1 -0
vn -0 -1 -0
vn -0 -1 -0
vn -0 -1 -0
vn -1.53319e-006 -1 -9.31669e-007
vn -1.53319e-006 -1 -9.31669e-007
vn -1.53319e-006 -1 -9.31669e-007
vn -1.53319e-006 -1 -9.31669e-007
vn 0.382683 0 0.92388
vn 0.382683 0 0.92388
vn 0.382683 0 0.92388
vn 0.382683 0 0.92388
vn -0.382683 -0 0.92388
vn -0.382683 -0 0.92388
vn -0.382683 -0 0.92388
vn -0.382683 -0 0.92388
vn -0.92388 -0 0.382683
vn -0.92388 -0 0.382683
vn -0.92388 -0 0.382683
vn -0.92388 -0 0.382683
vn -0.92388 0 -0.382683
vn -0.92388 0 -0.382683
vn -0.92388 0 -0.382683
vn -0.92388 0 -0.382683
vn -0.382683 0 -0.92388
vn -0.382683 0 -0.92388
vn -0.382683 0 -0.92388
vn -0.382683 0 -0.92388
vn 0.382683 0 -0.92388
vn 0.382683 0 -0.92388
vn 0.382683 0 -0.92388
vn 0.382683 0 -0.92388
vn 0.92388 0 -0.382683
vn 0.92388 0 -0.382683
vn 0.92388 0 -0.382683
vn 0.92388 0 -0.382683
vn 0.92388 0 0.382683
vn 0.92388 0 0.382683
vn 0.92388 0 0.382683
vn 0.92388 0 0.382683
vn 0.281085 -0.678598 0.678599
vn 0.281085 -0.678598 0.678599
vn 0.281085 -0.678598 0.678599
vn 0.281085 -0.678598 0.678599
vn 0.678599 -0.678598 0.281085
vn 0.678599 -0.678598 0.281085
vn 0.678599 -0.678598 0.281085
vn 0.678599 -0.678598 0.281085
vn -0.281085 -0.678598 0.678599
vn -0.281085 -0.678598 0.678599
vn -0.281085 -0.678598 0.678599
vn -0.281085 -0.678598 0.678599
vn -0.678599 -0.678598 0.281085
vn -0.678599 -0.678598 0.281085
vn -0.678599 -0.678598 0.281085
vn -0.678599 -0.678598 0.281085
vn -0.678599 -0.678598 -0.281085
vn -0.678599 -0.678598 -0.281085
vn -0.678599 -0.678598 -0.281085
vn -0.678599 -0.678598 -0.281085
vn -0.281085 -0.678598 -0.678598
vn -0.281085 -0.678598 -0.678598
vn -0.281085 -0.678598 -0.678598
vn -0.281085 -0.678598 -0.678598
vn 0.281085 -0.678598 -0.678599
vn 0.281085 -0.678598 -0.678599
vn 0.281085 -0.678598 -0.678599
vn 0.281085 -0.678598 -0.678599
vn 0.678599 -0.678598 -0.281085
vn 0.678599 -0.678598 -0.281085
vn 0.678599 -0.678598 -0.281085
vn 0.678599 -0.678598 -0.281085
vn 0.270599 0.707106 0.653282
vn 0.270599 0.707106 0.653282
vn 0.270599 0.707106 0.653282
vn 0.270599 0.707106 0.653282
vn 0.653282 0.707106 0.270598
vn 0.653282 0.707106 0.270598
vn 0.653282 0.707106 0.270598
vn 0.653282 0.707106 0.270598
vn -0.270598 0.707106 0.653282
vn -0.270598 0.707106 0.653282
vn -0.270598 0.707106 0.653282
vn -0.270598 0.707106 0.653282
vn -0.653282 0.707106 0.270598
vn -0.653282 0.707106 0.270598
vn -0.653282 0.707106 0.270598
vn -0.653282 0.707106 0.270598
vn -0.653281 0.707108 -0.270598
vn -0.653281 0.707108 -0.270598
vn -0.653281 0.707108 -0.270598
vn -0.653281 0.707108 -0.270598
vn -0.270598 0.707106 -0.653282
vn -0.270598 0.707106 -0.653282
vn -0.270598 0.707106 -0.653282
vn -0.270598 0.707106 -0.653282
vn 0.270598 0.707106 -0.653282
vn 0.270598 0.707106 -0.653282
vn 0.270598 0.707106 -0.653282
vn 0.270598 0.707106 -0.653282
vn 0.653282 0.707106 -0.270598
vn 0.653282 0.707106 -0.270598
vn 0.653282 0.707106 -0.270598
vn 0.653282 0.707106 -0.270598
vn 2.06843e-007 1 -8.56772e-008
vn 2.06843e-007 1 -8.56772e-008
vn 2.06843e-007 1 -8.56772e-008
vn 2.06843e-007 1 -8.56772e-008
vn -2.9252e-007 1 -2.9252e-007
vn -2.9252e-007 1 -2.9252e-007
vn -2.9252e-007 1 -2.9252e-007
vn -2.9252e-007 1 -2.9252e-007
vn 2.06843e-007 1 -8.56772e-008
vn 2.06843e-007 1 -8.56772e-008
vn 2.06843e-007 1 -8.56772e-008
vn 2.06843e-007 1 -8.56772e-008
vn 2.72915e-007 1 -2.72915e-007
vn 2.72915e-007 1 -2.72915e-007
vn 2.72915e-007 1 -2.72915e-007
vn 2.72915e-007 1 -2.72915e-007
vn 0 1 -0
vn 0 1 -0
vn 0 1 -0
vn 0 1 -0
vn 0 1 -0
vn 0 1 -0
vn 0 1 -0
vn 0 1 -0
vn 0 1 0
vn 0 1 0
vn 0 1 0
vn 0 1 0
vn 7.68124e-007 1 9.22626e-007
vn 7.68124e-007 1 9.22626e-007
vn 7.68124e-007 1 9.22626e-007
vn 7.68124e-007 1 9.22626e-007
vn -2.72915e-007 1 -2.72915e-007
vn -2.72915e-007 1 -2.72915e-007
vn -2.72915e-007 1 -2.72915e-007
vn -2.72915e-007 1 -2.72915e-007
vn 0 1 0
vn 0 1 0
vn 0 1 0
vn 0 1 0
vn -2.72915e-007 1 2.72915e-007
vn -2.72915e-007 1 2.72915e-007
vn -2.72915e-007 1 2.72915e-007
vn -2.72915e-007 1 2.72915e-007
vn -0.382684 0 -0.923879
vn -0.382684 0 -0.923879
vn -0.382684 0 -0.923879
vn -0.382684 0 -0.923879
vn 0.382684 -0 -0.923879
vn 0.382684 -0 -0.923879
vn 0.382684 -0 -0.923879
vn 0.382684 -0 -0.923879
vn 0.923879 -0 -0.382684
vn 0.923879 -0 -0.382684
vn 0.923879 -0 -0.382684
vn 0.923879 -0 -0.382684
vn 0.923879 0 0.382684
vn 0.923879 0 0.382684
vn 0.923879 0 0.382684
vn 0.923879 0 0.382684
vn 0.382684 0 0.923879
vn 0.382684 0 0.923879
vn 0.382684 0 0.923879
vn 0.382684 0 0.923879
vn -0.382684 0 0.923879
vn -0.382684 0 0.923879
vn -0.382684 0 0.923879
vn -0.382684 0 0.923879
vn -0.923879 0 0.382684
vn -0.923879 0 0.382684
vn -0.923879 0 0.382684
vn -0.923879 0 0.382684
vn -0.923879 0 -0.382684
vn -0.923879 0 -0.382684
vn -0.923879 0 -0.382684
vn -0.923879 0 -0.382684
vn -0.281085 0.678598 -0.678599
vn -0.281085 0.678598 -0.678599
vn -0.281085 0.678598 -0.678599
vn -0.281085 0.678598 -0.678599
vn -0.678599 0.678598 -0.281085
vn -0.678599 0.678598 -0.281085
vn -0.678599 0.678598 -0.281085
vn -0.678599 0.678598 -0.281085
vn 0.281084 0.678599 -0.678598
vn 0.281084 0.678599 -0.678598
vn 0.281084 0.678599 -0.678598
vn 0.281084 0.678599 -0.678598
vn 0.678599 0.678598 -0.281085
vn 0.678599 0.678598 -0.281085
vn 0.678599 0.678598 -0.281085
vn 0.678599 0.678598 -0.281085
vn 0.678599 0.678598 0.281085
vn 0.678599 0.678598 0.281085
vn 0.678599 0.678598 0.281085
vn 0.678599 0.678598 0.281085
vn 0.281085 0.678599 0.678597
vn 0.281085 0.678599 0.678597
vn 0.281085 0.678599 0.678597
vn 0.281085 0.678599 0.678597
vn -0.281085 0.678597 0.678599
vn -0.281085 0.678597 0.678599
vn -0.281085 0.678597 0.678599
vn -0.281085 0.678597 0.678599
vn -0.678599 0.678598 0.281085
vn -0.678599 0.678598 0.281085
vn -0.678599 0.678598 0.281085
vn -0.678599 0.678598 0.281085
g isl_Pipe_01
usemtl isl_Pipe_01
s off
f 2/2/1 10/3/2 9/3/3 1/2/4
f 3/2/5 11/3/6 10/3/7 2/2/8
f 12/3/9 11/3/10 3/2/11 4/2/12
f 13/3/13 12/3/14 4/2/15 5/2/16
f 14/3/17 13/3/18 5/2/19 6/2/20
f 15/3/21 14/3/22 6/2/23 7/2/24
f 8/2/25 16/3/26 15/3/27 7/2/28
f 1/2/29 9/3/30 16/3/31 8/2/32
f 15/3/33 16/3/34 26/3/35 25/3/36
f 27/3/37 14/3/38 15/3/39 25/3/40
f 28/3/41 13/3/42 14/3/43 27/3/44
f 29/3/45 12/3/46 13/3/47 28/3/48
f 30/3/49 11/3/50 12/3/51 29/3/52
f 10/3/53 11/3/54 30/3/55 31/3/56
f 9/3/57 10/3/58 31/3/59 32/3/60
f 16/3/61 9/3/62 32/3/63 26/3/64
f 36/3/65 35/3/66 34/3/67 33/3/68
f 38/3/69 37/3/70 35/3/71 36/3/72
f 40/3/73 39/3/74 37/3/75 38/3/76
f 42/3/77 41/3/78 39/3/79 40/3/80
f 44/3/81 41/3/82 42/3/83 43/3/84
f 46/3/85 44/3/86 43/3/87 45/3/88
f 48/3/89 46/3/90 45/3/91 47/3/92
f 34/3/93 48/3/94 47/3/95 33/3/96
f 35/3/97 25/3/98 26/3/99 34/3/100
f 34/3/101 26/3/102 32/3/103 48/3/104
f 37/3/105 27/3/106 25/3/107 35/3/108
f 39/3/109 28/3/110 27/3/111 37/3/112
f 41/3/113 29/3/114 28/3/115 39/3/116
f 44/3/117 30/3/118 29/3/119 41/3/120
f 46/3/121 31/3/122 30/3/123 44/3/124
f 48/3/125 32/3/126 31/3/127 46/3/128
f 33/3/129 17/3/130 18/3/131 36/3/132
f 47/3/133 24/3/134 17/3/135 33/3/136
f 36/3/137 18/3/138 19/3/139 38/3/140
f 38/3/141 19/3/142 20/3/143 40/3/144
f 40/3/145 20/3/146 21/3/147 42/3/148
f 42/3/149 21/3/150 22/3/151 43/3/152
f 43/3/153 22/3/154 23/3/155 45/3/156
f 45/3/157 23/3/158 24/3/159 47/3/160
f 54/1/161 53/1/162 52/1/163 51/1/164
f 55/1/165 54/1/166 51/1/167 50/1/168
f 50/1/169 49/1/170 56/1/171 55/1/172
f 58/3/173 18/3/174 17/3/175 57/3/176
f 59/3/177 19/3/178 18/3/179 58/3/180
f 60/3/181 20/3/182 19/3/183 59/3/184
f 61/3/185 21/3/186 20/3/187 60/3/188
f 22/3/189 21/3/190 61/3/191 62/3/192
f 23/3/193 22/3/194 62/3/195 63/3/196
f 24/3/197 23/3/198 63/3/199 64/3/200
f 17/3/201 24/3/202 64/3/203 57/3/204
f 50/1/205 66/3/206 65/3/207 49/1/208
f 67/3/209 66/3/210 50/1/211 51/1/212
f 52/1/213 68/3/214 67/3/215 51/1/216
f 53/1/217 69/3/218 68/3/219 52/1/220
f 70/3/221 69/3/222 53/1/223 54/1/224
f 55/1/225 71/3/226 70/3/227 54/1/228
f 72/3/229 71/3/230 55/1/231 56/1/232
f 65/3/233 72/3/234 56/1/235 49/1/236
f 66/3/237 58/3/238 57/3/239 65/3/240
f 65/3/241 57/3/242 64/3/243 72/3/244
f 67/3/245 59/3/246 58/3/247 66/3/248
f 68/3/249 60/3/250 59/3/251 67/3/252
f 69/3/253 61/3/254 60/3/255 68/3/256
f 70/3/257 62/3/258 61/3/259 69/3/260
f 71/3/261 63/3/262 62/3/263 70/3/264
f 72/3/265 64/3/266 63/3/267 71/3/268
